<?xml version="1.0" encoding="UTF-8"?>
<!DOCTYPE svg PUBLIC "-//W3C//DTD SVG 1.1//EN" "http://www.w3.org/Graphics/SVG/1.1/DTD/svg11.dtd">
<svg xmlns="http://www.w3.org/2000/svg" version="1.1" width="48px" height="48px" style="shape-rendering:geometricPrecision; text-rendering:geometricPrecision; image-rendering:optimizeQuality; fill-rule:evenodd; clip-rule:evenodd" xmlns:xlink="http://www.w3.org/1999/xlink">
<g><path style="opacity:0.775" fill="#498162" d="M 14.5,-0.5 C 15.5,-0.5 16.5,-0.5 17.5,-0.5C 16.7549,9.14826 16.4216,18.8149 16.5,28.5C 17.8333,28.5 19.1667,28.5 20.5,28.5C 20.5,29.5 20.5,30.5 20.5,31.5C 17.8559,31.8399 15.5225,31.1733 13.5,29.5C 11.6329,32.2291 10.6329,31.8957 10.5,28.5C 11.8734,28.6567 13.2068,28.49 14.5,28C 13.8021,20.3772 13.1354,12.7105 12.5,5C 13.3195,3.19971 13.9862,1.36637 14.5,-0.5 Z"/></g>
<g><path style="opacity:0.772" fill="#4e8c6b" d="M 40.5,47.5 C 29.1667,47.5 17.8333,47.5 6.5,47.5C 7.56764,46.5655 8.90097,46.2322 10.5,46.5C 10.8438,27.8802 11.8438,27.8802 13.5,46.5C 14.4933,41.8804 14.8266,37.2137 14.5,32.5C 16.5,32.5 18.5,32.5 20.5,32.5C 20.5,37.1667 20.5,41.8333 20.5,46.5C 22.5,46.5 24.5,46.5 26.5,46.5C 25.8716,35.7419 26.5382,25.2419 28.5,15C 28.1667,14.6667 27.8333,14.3333 27.5,14C 29.6137,12.482 31.947,12.1487 34.5,13C 35.8333,13.6667 35.8333,14.3333 34.5,15C 35.4162,15.3742 36.2496,15.8742 37,16.5C 37.4998,26.4944 37.6665,36.4944 37.5,46.5C 38.791,46.2627 39.791,46.596 40.5,47.5 Z M 28.5,16.5 C 30.5909,17.8654 32.9242,18.5321 35.5,18.5C 35.5,27.5 35.5,36.5 35.5,45.5C 32.8333,45.5 30.1667,45.5 27.5,45.5C 27.2181,35.7807 27.5514,26.1141 28.5,16.5 Z"/></g>
<g><path style="opacity:0.78" fill="#579d76" d="M 29.5,24.5 C 31.1667,24.5 32.8333,24.5 34.5,24.5C 34.5,30.8333 34.5,37.1667 34.5,43.5C 32.8333,43.5 31.1667,43.5 29.5,43.5C 29.5,37.1667 29.5,30.8333 29.5,24.5 Z"/></g>
</svg>
